<?xml version="1.0" encoding="utf-8"?>
<!-- Generator: Adobe Illustrator 27.5.0, SVG Export Plug-In . SVG Version: 6.00 Build 0)  -->
<svg version="1.1" xmlns="http://www.w3.org/2000/svg" xmlns:xlink="http://www.w3.org/1999/xlink" x="0px" y="0px"
	 viewBox="0 0 750 500" style="enable-background:new 0 0 750 500;" xml:space="preserve">
<g id="Background">
	<rect style="fill:#FFFFFF;" width="750" height="500"/>
</g>
<g id="objects">
	<g>
		<g>
			<g>
				<path style="fill:#EAF4F2;" d="M651.928,454.708H112.517c0,0,66.108-53.422,35.651-100.739s-92.704-119.436-29.909-206.246
					c62.795-86.81,159.014-120.39,311.617-111.232s194.409,86.233,197.237,145.949c3.992,84.298-85.77,86.954-30.182,143.872
					C666.428,397.473,651.928,454.708,651.928,454.708z"/>
				<circle style="fill:#CED8D6;" cx="320.459" cy="309.454" r="4.719"/>
				<circle style="fill:#CED8D6;" cx="631.831" cy="205.801" r="4.719"/>
				<rect x="488.16" y="108.992" style="fill:#FFFFFF;" width="119.915" height="100.25"/>
				<rect x="497.387" y="117.006" style="fill:#FDD449;" width="24.231" height="30.718"/>
				<circle style="fill:#19888E;" cx="509.502" cy="121.966" r="2.767"/>
				<rect x="580.458" y="156.626" style="fill:#FC694C;" width="18.563" height="23.533"/>
				<path style="fill:#FDD449;" d="M591.859,160.426c0,1.171-0.949,2.119-2.119,2.119c-1.171,0-2.12-0.949-2.12-2.119
					c0-1.17,0.949-2.119,2.12-2.119C590.91,158.307,591.859,159.256,591.859,160.426z"/>
				<rect x="508.43" y="165.371" style="fill:#FC694C;" width="24.155" height="30.622"/>
				<circle style="fill:#FDD449;" cx="520.507" cy="170.317" r="2.758"/>
				<g>
					<rect x="236.002" y="90.295" style="opacity:0.3;fill:#CED8D6;" width="228.948" height="148.562"/>
					<g>
						<path style="fill:#CED8D6;" d="M451.059,119.629h-86.742c-1.321,0-2.392-1.071-2.392-2.392v-0.462
							c0-1.321,1.071-2.392,2.392-2.392h86.742c1.321,0,2.392,1.071,2.392,2.392v0.462
							C453.451,118.558,452.38,119.629,451.059,119.629z"/>
						<path style="fill:#CED8D6;" d="M451.059,137.611h-86.742c-1.321,0-2.392-1.071-2.392-2.392v-0.462
							c0-1.321,1.071-2.392,2.392-2.392h86.742c1.321,0,2.392,1.071,2.392,2.392v0.462
							C453.451,136.54,452.38,137.611,451.059,137.611z"/>
						<path style="fill:#CED8D6;" d="M451.059,155.593h-86.742c-1.321,0-2.392-1.071-2.392-2.392v-0.462
							c0-1.321,1.071-2.392,2.392-2.392h86.742c1.321,0,2.392,1.071,2.392,2.392v0.462
							C453.451,154.522,452.38,155.593,451.059,155.593z"/>
						<path style="fill:#CED8D6;" d="M451.059,173.576h-86.742c-1.321,0-2.392-1.071-2.392-2.392v-0.462
							c0-1.321,1.071-2.392,2.392-2.392h86.742c1.321,0,2.392,1.071,2.392,2.392v0.462
							C453.451,172.504,452.38,173.576,451.059,173.576z"/>
						<path style="fill:#CED8D6;" d="M451.059,191.558h-86.742c-1.321,0-2.392-1.071-2.392-2.392v-0.462
							c0-1.321,1.071-2.392,2.392-2.392h86.742c1.321,0,2.392,1.071,2.392,2.392v0.462
							C453.451,190.487,452.38,191.558,451.059,191.558z"/>
						<path style="fill:#CED8D6;" d="M451.059,209.54h-86.742c-1.321,0-2.392-1.071-2.392-2.392v-0.462
							c0-1.321,1.071-2.392,2.392-2.392h86.742c1.321,0,2.392,1.071,2.392,2.392v0.462
							C453.451,208.469,452.38,209.54,451.059,209.54z"/>
					</g>
					<path style="fill:#F4F4F4;" d="M345.294,162.385c0,25.411-20.603,46.015-46.004,46.015c-25.412,0-46.015-20.603-46.015-46.015
						c0-25.412,20.603-46.015,46.015-46.015C324.691,116.37,345.294,136.973,345.294,162.385z"/>
					<path style="fill:#19888E;" d="M338.94,162.385c0,21.902-17.758,39.66-39.65,39.66c-21.902,0-39.66-17.758-39.66-39.66
						c0-21.902,17.758-39.66,39.66-39.66C321.182,122.725,338.94,140.482,338.94,162.385z"/>
					<path style="fill:#FC694C;" d="M338.94,162.385h-39.65v-39.66C321.182,122.725,338.94,140.482,338.94,162.385z"/>
				</g>
				<g>
					<g>
						<polygon style="fill:#FDD449;" points="289.877,85.773 302.855,105.177 318.352,85.143 						"/>
						<polygon style="fill:#FFFFFF;" points="337.038,213.476 315.434,245.272 346.924,249.758 						"/>
					</g>
					<polygon style="fill:#FDD449;" points="313.58,229.244 323.756,215.663 310.273,215.663 					"/>
					<polygon style="fill:#FDD449;" points="441.252,235.468 430.581,248.662 444.054,249.161 					"/>
					<polygon style="fill:#FFFFFF;" points="454.268,80.374 451.024,100.788 471.248,92.394 					"/>
					<polygon style="fill:#CED8D6;" points="412.228,69.102 431.491,96.727 445.741,64.02 					"/>
					<polygon style="fill:#CED8D6;" points="234.525,98.535 248.703,104.819 233.631,115.348 					"/>
					<polygon style="fill:#CED8D6;" points="458.307,212.939 472.486,219.223 457.413,229.752 					"/>
				</g>
				<g>
					<g>
						<path style="fill:#CED8D6;" d="M283.992,299.852H150.989c-6.094,0-11.052-4.958-11.052-11.052v-75.323h1.95v75.323
							c0,5.019,4.083,9.102,9.102,9.102h133.003c5.019,0,9.102-4.083,9.102-9.102v-43.568h1.95v43.568
							C295.045,294.894,290.086,299.852,283.992,299.852z"/>
					</g>
					<g>
						<path style="fill:#FDD449;" d="M169.307,182.445c0,5.394-1.349,10.187-3.351,14.294c-3.563,7.298-9.192,12.431-12.99,14.921
							c-5.926,3.888-3.787,11.86-3.787,11.86h-16.535c0,0,2.143-7.973-3.791-11.86c-3.66-2.4-9.024-7.261-12.595-14.149
							c-2.214-4.275-3.742-9.33-3.742-15.066c0-14.973,10.407-27.184,28.395-27.184S169.307,167.473,169.307,182.445z"/>
						<path style="fill:#444C72;" d="M152.628,231.155h-23.433c-0.96,0-1.739-0.778-1.739-1.739v-4.157
							c0-0.96,0.778-1.739,1.739-1.739h23.433c0.96,0,1.739,0.778,1.739,1.739v4.157
							C154.367,230.376,153.589,231.155,152.628,231.155z"/>
						<path style="fill:#19888E;" d="M151.814,231.154v14.037c0,2.035-1.647,3.683-3.683,3.683h-14.44
							c-2.035,0-3.683-1.648-3.683-3.683v-14.037H151.814z"/>
						<path style="fill:#444C72;" d="M143.72,253.324h-5.615c-2.457,0-4.449-1.992-4.449-4.449l0,0h14.512l0,0
							C148.168,251.333,146.176,253.324,143.72,253.324z"/>
						<path style="fill:#FFFFFF;" d="M146.405,198.095c-2.279,0-4.132,1.854-4.132,4.132v3.549h-0.279h-2.164h-0.279v-3.549
							c0-2.279-1.854-4.132-4.133-4.132c-2.279,0-4.132,1.854-4.132,4.132v1.653c0,2.279,1.854,4.132,4.132,4.132h1.896v15.508
							h2.236v-15.508h0.279h2.164h0.279v15.508h2.236v-15.508h1.896c2.279,0,4.133-1.854,4.133-4.132v-1.653
							C150.538,199.948,148.684,198.095,146.405,198.095z M137.314,205.776h-1.896c-1.045,0-1.896-0.851-1.896-1.896v-1.653
							c0-1.045,0.851-1.896,1.896-1.896c1.046,0,1.896,0.851,1.896,1.896V205.776z M148.302,203.88c0,1.045-0.851,1.896-1.896,1.896
							h-1.896v-3.549c0-1.045,0.851-1.896,1.896-1.896c1.046,0,1.896,0.851,1.896,1.896V203.88z"/>
					</g>
					<circle style="fill:#CED8D6;" cx="294.07" cy="246.407" r="4.719"/>
				</g>
				<g>
					<path style="fill:#CED8D6;" d="M159.812,329.382l-0.069-0.898c-0.208-1.866,0.415-3.905,2.142-5.978
						c1.555-1.831,2.419-3.179,2.419-4.734c0-1.762-1.106-2.937-3.283-2.972c-1.244,0-2.626,0.415-3.49,1.071l-0.829-2.177
						c1.14-0.829,3.11-1.382,4.941-1.382c3.974,0,5.771,2.454,5.771,5.08c0,2.35-1.313,4.043-2.972,6.012
						c-1.52,1.797-2.073,3.317-1.97,5.08l0.035,0.898H159.812z M159.052,334.22c0-1.279,0.864-2.177,2.073-2.177
						c1.21,0,2.039,0.898,2.039,2.177c0,1.209-0.795,2.142-2.074,2.142C159.882,336.362,159.052,335.429,159.052,334.22z"/>
				</g>
				<g>
					<path style="fill:#CED8D6;" d="M628.667,166.226l-0.097-1.266c-0.292-2.629,0.584-5.502,3.018-8.423
						c2.191-2.58,3.408-4.479,3.408-6.67c0-2.483-1.558-4.138-4.625-4.187c-1.753,0-3.7,0.585-4.917,1.509l-1.169-3.067
						c1.607-1.169,4.381-1.948,6.962-1.948c5.599,0,8.131,3.457,8.131,7.158c0,3.31-1.85,5.696-4.187,8.471
						c-2.142,2.532-2.921,4.674-2.775,7.158l0.049,1.266H628.667z M627.596,173.042c0-1.802,1.217-3.067,2.921-3.067
						c1.704,0,2.873,1.266,2.873,3.067c0,1.704-1.12,3.018-2.922,3.018C628.764,176.06,627.596,174.746,627.596,173.042z"/>
				</g>
				<g>
					<path style="fill:#CED8D6;" d="M484.498,84.959l-0.063-0.816c-0.189-1.696,0.377-3.549,1.947-5.434
						c1.414-1.664,2.199-2.889,2.199-4.303c0-1.602-1.005-2.669-2.984-2.701c-1.131,0-2.387,0.377-3.172,0.974l-0.754-1.979
						c1.036-0.754,2.827-1.256,4.491-1.256c3.612,0,5.245,2.23,5.245,4.617c0,2.135-1.193,3.674-2.701,5.465
						c-1.382,1.634-1.884,3.015-1.79,4.617l0.032,0.816H484.498z M483.808,89.357c0-1.162,0.785-1.979,1.884-1.979
						c1.099,0,1.853,0.816,1.853,1.979c0,1.099-0.723,1.947-1.885,1.947C484.561,91.304,483.808,90.456,483.808,89.357z"/>
				</g>
				<g>
					<g>
						<g>
							<polygon style="fill:#FFFFFF;" points="319.115,375.71 253.846,375.71 253.846,316.871 256.155,316.871 256.155,373.4 
								319.115,373.4 							"/>
						</g>
						<polygon style="fill:#FFFFFF;" points="313.248,334.665 312.54,329.471 307.346,330.179 305.441,332.685 309.104,332.185 
							296.134,349.25 283.046,337.415 264.798,363.734 266.595,364.979 283.425,340.705 296.434,352.47 310.845,333.508 
							311.344,337.171 						"/>
					</g>
				</g>
				<path style="opacity:0.3;fill:#CED8D6;" d="M122.306,343.679c-12.353,7.946,6.415,43.072,19.997,40.536
					C155.886,381.679,134.517,335.825,122.306,343.679z"/>
				<path style="opacity:0.3;fill:#CED8D6;" d="M624.285,87.378C637.386,71.242,571.358,33.314,558.968,49
					C551.064,59.005,613.442,100.733,624.285,87.378z"/>
				<path style="opacity:0.3;fill:#CED8D6;" d="M117.727,338.6c-6.46,3.015-14.119-9.848-5.915-13.605
					C120.017,321.238,126.313,334.594,117.727,338.6z"/>
				<path style="opacity:0.3;fill:#CED8D6;" d="M636.55,339.886c-10.95,5.362,8.51,39.822,21.102,39.736
					C670.244,379.535,652.843,331.907,636.55,339.886z"/>
				<path style="opacity:0.3;fill:#CED8D6;" d="M661.965,385.259c-7.453,0.579-3.55,12.027,1.792,12.214
					C669.099,397.66,669.332,384.687,661.965,385.259z"/>
			</g>
			<g>
				<path style="fill:#CED8D6;" d="M621.754,310.41H319.892v-1.95h301.862c5.019,0,9.102-4.083,9.102-9.102v-92.653h1.95v92.653
					C632.807,305.452,627.848,310.41,621.754,310.41z"/>
			</g>
			<g>
				<g>
					<path style="fill:#F6B68E;" d="M273.887,454.708h-39.738c-1.638-5.334,0-12.823,0-12.823l-0.644-7.041l-0.722-7.84
						l15.183-1.814l1.19,4.993l1.863,7.85c2.019,1.833,15.242,4.691,18.557,8.016C272.902,449.374,273.887,454.708,273.887,454.708z
						"/>
					<path style="fill:#C4764B;" d="M249.157,430.182c-4.583,3.316-11.868,4.349-15.651,4.661l-0.722-7.84l15.183-1.814
						L249.157,430.182z"/>
					<path style="fill:#444C72;" d="M273.883,454.707h-39.735c-1.638-5.334,0-12.826,0-12.826s12.246,2.278,16.871-3.846
						c2.018,1.828,15.243,4.685,18.559,8.011C272.904,449.373,273.883,454.707,273.883,454.707z"/>
					<path style="fill:#F6B68E;" d="M215.602,454.708h-39.738c-1.638-5.334,0-12.823,0-12.823l0.595-5.324l0.624-5.598l16.041-2.564
						l-0.224,5.617l-0.166,4.018c2.019,1.833,15.242,4.691,18.558,8.016C214.617,449.374,215.602,454.708,215.602,454.708z"/>
					<path style="fill:#C4764B;" d="M177.083,430.963l16.041-2.564l-0.224,5.617c-6.358,2.087-12.833,2.506-16.441,2.545
						L177.083,430.963z"/>
					<path style="fill:#444C72;" d="M178.944,306.265l-1.727,61.276l-2.87,63.696c0,0,11.251,3.448,20.688-0.907l8.348-61.7
						l6.896-38.653l9.255,38.29l10.888,60.611c0,0,11.433,2.178,19.599-2.904l-6.714-64.422l-6.896-58.796L178.944,306.265z"/>
					<path style="fill:#222850;" d="M219.564,173.597c0,0,4.104-2.484,3.672-7.021c-0.432-4.536-5.725-4.968-7.561-7.237
						c-1.836-2.268-4.422-6.697-11.338-6.697c-6.916,0-11.56,4.536-11.128,8.425c0,0-5.941-1.188-8.425,3.24
						c-2.484,4.428-0.216,8.749-1.188,10.801c-0.972,2.052-0.972,7.345,1.836,10.369c2.808,3.024,0.972,5.508,4.104,9.289
						c3.132,3.78,7.583,3.025,7.583,3.025L219.564,173.597z"/>
					<path style="fill:#F6B68E;" d="M293.907,200.806c-0.292,1.229-3.978,3.423-7.138,5.12c-2.457,1.307-4.603,2.311-4.603,2.311
						l-6.768-5.188l1.502-2.516l0.575-0.975c0,0,1.521-12.238,2.994-13.33c1.472-1.082,2.604,0.312,2.877,1.716
						c0.273,1.394,0.273,4.817,0.273,4.817s2.604-3.93,2.643-4.047c0.039-0.117,2.487-7.411,3.881-7.528
						c1.395-0.117,1.707,0.77,1.785,1.668c0.078,0.897-0.927,5.207-0.927,5.207s2.321,1.941,2.438,2.75
						C293.556,191.629,294.424,198.631,293.907,200.806z"/>
					<path style="fill:#C4764B;" d="M286.769,205.925c-2.457,1.307-4.603,2.311-4.603,2.311l-6.768-5.188l1.502-2.516
						C279.318,201.02,284.077,202.386,286.769,205.925z"/>
					<path style="fill:#FC694C;" d="M226.005,206.97l23.712,21.385l24.256-26.313c0,0,6.708-0.239,9.793,7.201
						c0,0-22.315,29.456-32.477,35.989l-19.581-6.235C231.709,238.996,225.582,224.057,226.005,206.97z"/>
					<path style="fill:#F6B68E;" d="M220.213,193.583c-0.288,0.436-0.622,0.816-1.002,1.132c0,0,0,0-0.009,0
						c-2.486,2.133-6.548,1.892-6.548,1.892l0.343,3.682l0.519,5.602c0,0-1.299,3.784-7.235,3.673
						c-5.945-0.111-9.396-3.998-9.396-3.998l0.538-17.604c0,0-2.374-0.76-2.81-2.588c-0.436-1.837-1.4-5.407,0-5.834
						c1.401-0.436,3.562,0.102,4.109,1.725l0.538,2.588l1.939-0.102c0,0-0.427-4.211,0.872-5.834
						c1.289-1.623,6.149-3.023,6.149-6.91c0,0,4.647,5.287,11.343,2.588C219.564,173.595,222.374,190.235,220.213,193.583z"/>
					<path style="fill:#FC694C;" d="M237.621,283.402c-0.449,2.877-0.966,5.636-1.443,7.957c-0.8,3.891-1.463,6.563-1.463,6.563
						s-21.063,6.397-46.593,2.214c-2.096-0.331-4.232-0.751-6.387-1.248c0,0-1.268-2.107-2.701-4.652
						c-1.833-3.238-3.949-7.197-4.086-8.416c-0.156-1.453,3.228-34.94,5.5-57.144c1.141-11.136,2.009-19.435,2.009-19.435
						s4.135-4.281,11.877-6.797v-0.01c0.848-0.273,1.736-0.536,2.662-0.751c0,0,3.979,6.27,10.483,5.139
						c6.514-1.121,5.783-3.589,5.783-3.589l-0.185-1.999c0,0,1.044,0.341,2.555,0.897c3.169,1.161,8.406,3.218,10.376,4.837
						C226.006,206.969,238.83,275.659,237.621,283.402z"/>
					<path style="fill:#D64F38;" d="M187.741,265.819l-3.501,20.995l3.501,9.157l0.38,4.164l0.761,8.406c0,0,0,0-0.01,0
						c-3.842-0.546-7.07-1.346-9.927-2.272c0,0-3.94-6.27,0.088-12.033c-1.833-3.238-3.949-7.197-4.086-8.416
						c-0.156-1.453,3.228-34.94,5.5-57.144l3.793-1.95v16.997h27.938v6.651L187.741,265.819z"/>
					<path style="fill:#FC694C;" d="M236.411,302.759c0,0-5.812,4.378-22.867,5.958c-10.551,0.975-18.421,0.731-24.662-0.176
						c0,0,0,0-0.01,0c-3.842-0.546-7.07-1.346-9.927-2.272c0,0-3.94-6.27,0.088-12.033c0,0,2.75,1.014,8.708,1.736
						c4.807,0.585,11.721,0.985,20.966,0.498c20.683-1.092,27.47-5.11,27.47-5.11S239.376,296.527,236.411,302.759z"/>
					<path style="fill:#D64F38;" d="M188.882,308.541c0,0,0,0-0.01,0c-3.842-0.546-7.07-1.346-9.927-2.272
						c0,0-3.94-6.27,0.088-12.033c0,0,2.75,1.014,8.708,1.736l0.38,4.164L188.882,308.541z"/>
					<path style="fill:#F6B68E;" d="M221.437,236.434c-0.362,0.816-0.816,3.441-1.364,4.897c-0.538,1.447-3.534,3.895-4.99,4.721
						c-1.401,0.788-6.112,1.577-8.515,1.623c-0.083,0.009-0.167,0.009-0.25,0.009c-2.3,0-5.389,0-5.389,0l-2.625-9.897
						c0,0,3.441-2.625,4.712-3.626c1.271-1.002,4.266-3.45,5.992-3.719c1.568-0.241,3.367-0.046,3.673-0.009l-0.779,2.217
						l-0.009,0.028c-0.028,0.26-0.232,1.967,0.102,2.245c0.362,0.287,3.367,0.38,4.637-0.148c1.271-0.519,4.628-2.514,5.352-1.697
						C222.708,233.893,221.799,235.618,221.437,236.434z"/>
					<path style="fill:#F4F4F4;" d="M245.358,223.634l-14.154,33.993l-27.213-2.662l2.578-7.29c2.402-0.046,7.114-0.835,8.515-1.623
						c1.456-0.826,4.452-3.274,4.99-4.721c0.547-1.456,1.002-4.081,1.364-4.897c0.362-0.816,1.271-2.541,0.547-3.357
						c-0.723-0.816-4.081,1.178-5.352,1.697c-1.271,0.529-4.276,0.436-4.637,0.148c-0.334-0.278-0.13-1.985-0.102-2.245l0.009-0.028
						l0.779-2.217l4.851-13.69L245.358,223.634z"/>
					<path style="fill:#FC694C;" d="M182.453,209.242c0,0-17.361,29.819-17.542,46.514c0,0,0.907,3.992,7.803,4.537
						c6.896,0.544,29.217-11.433,29.217-11.433s1.089-9.073-3.085-12.34l-17.149,4.99
						C181.697,241.511,187.655,218.076,182.453,209.242z"/>
					<path style="fill:#D64F38;" d="M207.46,210.389c-7.68,0.816-13.124-7.949-13.124-7.949v-0.009
						c0.844-0.269,1.735-0.529,2.662-0.751c0,0,3.979,6.27,10.481,5.138c6.511-1.122,5.788-3.58,5.788-3.58l-0.186-2.003
						c0,0,1.039,0.343,2.551,0.9C216.948,205.167,215.13,209.573,207.46,210.389z"/>
					<path style="fill:#F4F4F4;" d="M203.14,206.506l-5.201,7.633c0,0-5.086-5.185-5.779-10.91l4.885-2.937L203.14,206.506z"/>
					<path style="fill:#F4F4F4;" d="M211.294,205.706l1.734-5.064l4.858,2.343c0,0,0.498,3.23-0.833,7.458L211.294,205.706z"/>
					<path style="fill:#444C72;" d="M215.597,454.707h-39.735c-1.638-5.334,0-12.826,0-12.826s12.246,2.278,16.871-3.846
						c2.018,1.828,15.243,4.685,18.559,8.011C214.618,449.373,215.597,454.707,215.597,454.707z"/>
					<polygon style="fill:#222850;" points="210.278,329.977 218.081,321.267 213.359,342.725 					"/>
					<polygon style="fill:#D64F38;" points="181.697,241.511 177.341,247.685 187.739,239.753 					"/>
					<path style="fill:#C4764B;" d="M212.654,196.607l0.343,3.682c-11.919-0.232-11.306-12.521-11.306-12.521
						c7.225,10.101,16.955,7.133,17.511,6.947C216.716,196.848,212.654,196.607,212.654,196.607z"/>
				</g>
				<g>
					<g>
						<rect x="118.259" y="86.183" style="fill:#19888E;" width="106.415" height="42.992"/>
						<polygon style="fill:#19888E;" points="203.991,129.175 203.991,144.253 211.294,129.175 						"/>
					</g>
					<path style="fill:#FFFFFF;" d="M216.457,99.508h-89.98c-0.487,0-0.882-0.395-0.882-0.882l0,0c0-0.487,0.395-0.882,0.882-0.882
						h89.98c0.487,0,0.882,0.395,0.882,0.882l0,0C217.339,99.113,216.944,99.508,216.457,99.508z"/>
					<path style="fill:#FFFFFF;" d="M216.457,108.562h-89.98c-0.487,0-0.882-0.395-0.882-0.882l0,0c0-0.487,0.395-0.882,0.882-0.882
						h89.98c0.487,0,0.882,0.395,0.882,0.882l0,0C217.339,108.166,216.944,108.562,216.457,108.562z"/>
					<path style="fill:#FFFFFF;" d="M216.457,117.615h-89.98c-0.487,0-0.882-0.395-0.882-0.882l0,0c0-0.487,0.395-0.882,0.882-0.882
						h89.98c0.487,0,0.882,0.395,0.882,0.882l0,0C217.339,117.22,216.944,117.615,216.457,117.615z"/>
				</g>
			</g>
			<g>
				<g>
					<path style="fill:#222850;" d="M558.646,168.392c0,0-6.614-4.961-3.689-10.684c2.925-5.724,8.922-5.088,11.647-3.053
						c2.726,2.035,3.725,6.741,8.758,8.268c5.033,1.526,10.63,4.706,11.011,10.812c0.381,6.105-1.125,13.591-6.668,16.911h-10.63
						L558.646,168.392z"/>
					<path style="fill:#F6B68E;" d="M543.636,433.956l-0.731,7.928c0,0,1.638,7.489,0,12.823h-39.738c0,0,0.975-5.334,4.3-8.66
						c3.315-3.325,16.548-6.183,18.567-8.016l2.623-11.029l0.332-1.404l0.097-0.41l0.068,0.01l15.115,1.804L543.636,433.956z"/>
					<path style="fill:#444C72;" d="M503.166,454.707h39.735c1.638-5.334,0-12.826,0-12.826s-12.246,2.278-16.871-3.846
						c-2.018,1.828-15.243,4.685-18.559,8.011C504.145,449.373,503.166,454.707,503.166,454.707z"/>
					<path style="fill:#F6B68E;" d="M601.19,454.708h-39.738c0,0,0.975-5.334,4.3-8.66s16.548-6.183,18.567-8.016l-0.214-5.354
						l-0.176-4.281l16.042,2.564l0.643,5.744l0.575,5.178C601.19,441.884,602.828,449.374,601.19,454.708z"/>
					<path style="fill:#C4764B;" d="M544.27,427.003l-0.634,6.953h-0.01c-9.752-0.634-14.159-5.861-14.969-6.953
						c-0.107-0.136-0.156-0.205-0.156-0.205l0.488-1.199l0.166-0.4L544.27,427.003z"/>
					<path style="fill:#C4764B;" d="M600.615,436.706c-8.406,0.712-16.285-3.891-16.509-4.027l-0.176-4.281l16.042,2.564
						L600.615,436.706z"/>
					<path style="fill:#444C72;" d="M598.104,306.265l1.727,61.276l2.87,63.696c0,0-11.251,3.448-20.688-0.907l-8.348-61.7
						l-6.896-38.653l-9.255,38.29l-10.888,60.611c0,0-11.433,2.178-19.599-2.904l6.714-64.422l6.896-58.796L598.104,306.265z"/>
					<path style="fill:#F6B68E;" d="M501.656,203.049l-6.768,5.188c0,0-1.902-0.887-4.173-2.087
						c-3.247-1.716-7.275-4.066-7.577-5.344c-0.517-2.175,0.351-9.176,0.468-9.995c0.117-0.809,2.448-2.75,2.448-2.75
						s-1.014-4.31-0.936-5.207c0.078-0.897,0.39-1.784,1.794-1.668c1.394,0.117,3.842,7.411,3.881,7.528
						c0.039,0.117,2.643,4.047,2.643,4.047s0-3.423,0.273-4.817c0.263-1.404,1.395-2.799,2.867-1.716
						c1.482,1.092,2.994,13.33,2.994,13.33l1.004,1.677L501.656,203.049z"/>
					<path style="fill:#C4764B;" d="M501.656,203.049l-6.768,5.188c0,0-1.902-0.887-4.173-2.087
						c1.609-1.453,5.363-4.369,9.859-4.915L501.656,203.049z"/>
					<path style="fill:#19888E;" d="M551.043,206.97l-23.712,21.385l-24.256-26.313c0,0-6.708-0.239-9.793,7.201
						c0,0,22.315,29.456,32.477,35.989l19.581-6.235C545.339,238.996,551.467,224.057,551.043,206.97z"/>
					<path style="fill:#F6B68E;" d="M556.836,193.583c0.288,0.436,0.622,0.816,1.002,1.132c0,0,0,0,0.009,0
						c2.486,2.133,6.548,1.892,6.548,1.892l-0.343,3.682l-0.52,5.602c0,0,1.299,3.784,7.235,3.673
						c5.945-0.111,9.396-3.998,9.396-3.998l-0.538-17.604c0,0,2.375-0.76,2.81-2.588c0.436-1.837,1.401-5.407,0-5.834
						c-1.401-0.436-3.562,0.102-4.109,1.725l-0.538,2.588l-1.938-0.102c0,0,3.021-13.96-17.203-15.359
						C558.646,168.392,554.675,190.235,556.836,193.583z"/>
					<path style="fill:#444C72;" d="M561.452,454.707h39.735c1.638-5.334,0-12.826,0-12.826s-12.246,2.278-16.871-3.846
						c-2.018,1.828-15.243,4.685-18.559,8.011C562.431,449.373,561.452,454.707,561.452,454.707z"/>
					<polygon style="fill:#222850;" points="566.771,329.977 558.968,321.267 563.69,342.725 					"/>
					<path style="fill:#C4764B;" d="M564.395,196.607l-0.343,3.682c11.919-0.232,11.306-12.521,11.306-12.521
						c-7.225,10.101-16.955,7.133-17.511,6.947C560.333,196.848,564.395,196.607,564.395,196.607z"/>
					<path style="fill:#19888E;" d="M601.132,306.396c-4.427,1.16-10.386,1.628-16.9,1.677c-1.034,0.01-2.077,0.01-3.14,0h-0.029
						c-20.215-0.234-44.038-3.969-44.038-3.969l8.318-65.111l5.705-32.024l12.716-3.618c0,0,0.38,3.599,5.315,4.086
						c6.339,0.644,11.039-3.325,11.039-3.325l-0.058-2.067l12.424,6.192l2.457,27.899L601.132,306.396z"/>
					<path style="fill:#0A5B5B;" d="M584.232,308.073l10.561-37.534l-11.624-37.534l11.77,3.13l6.192,70.26
						C596.704,307.556,590.746,308.024,584.232,308.073z"/>
					<path style="fill:#F6B68E;" d="M600.303,308.083c-0.136,1.258-0.546,2.682-1.063,4.076c-1.287,3.481-3.228,6.797-3.228,6.797
						c-6.105-0.283-11.166-6.67-11.166-6.67s0.673-2.194,1.717-3.267c1.053-1.073,4.291-3.51,4.291-3.51L600.303,308.083z"/>
					<path style="fill:#C4764B;" d="M600.303,308.083c-0.136,1.258-0.546,2.682-1.063,4.076c-6.699-1.609-8.386-6.65-8.386-6.65
						L600.303,308.083z"/>
					<path style="fill:#19888E;" d="M592.48,208.237c0,0,14.5,28.72,18.316,47.496c0,0-2.694,39.692-9.667,53.082
						c0,0-5.469,1.526-10.811-3.816c0,0,5.215-34.421,5.215-45.409l-12.367-26.584C583.166,233.007,581.414,216.664,592.48,208.237z
						"/>
					<polygon style="fill:#0A5B5B;" points="545.343,238.993 548.486,221.346 536.258,241.888 					"/>
				</g>
				<g>
					<g>
						<rect x="518.827" y="92.675" style="fill:#19888E;" width="82.655" height="42.992"/>
						<polygon style="fill:#19888E;" points="583.589,135.667 583.589,153.199 590.892,135.667 						"/>
					</g>
					<path style="fill:#FFFFFF;" d="M590.977,104.483h-61.645c-0.404,0-0.732-0.328-0.732-0.732v-0.301
						c0-0.404,0.328-0.732,0.732-0.732h61.645c0.404,0,0.732,0.328,0.732,0.732v0.301
						C591.709,104.155,591.381,104.483,590.977,104.483z"/>
					<path style="fill:#FFFFFF;" d="M590.977,113.536h-61.645c-0.404,0-0.732-0.328-0.732-0.732v-0.301
						c0-0.404,0.328-0.732,0.732-0.732h61.645c0.404,0,0.732,0.328,0.732,0.732v0.301
						C591.709,113.208,591.381,113.536,590.977,113.536z"/>
					<path style="fill:#FFFFFF;" d="M583.711,122.589h-47.114c-0.354,0-0.641-0.287-0.641-0.641v-0.483
						c0-0.354,0.287-0.641,0.641-0.641h47.114c0.354,0,0.641,0.287,0.641,0.641v0.483
						C584.352,122.302,584.065,122.589,583.711,122.589z"/>
				</g>
			</g>
			<g>
				<g>
					<g>
						<polygon style="fill:#CED8D6;" points="334.169,330.209 330.474,330.244 379.52,454.713 383.509,454.713 						"/>
						<polygon style="fill:#CED8D6;" points="379.853,330.209 383.547,330.244 334.501,454.713 330.512,454.713 						"/>
					</g>
					<g>
						<g>
							<g>
								<rect x="465.715" y="379.102" style="fill:#222850;" width="5.339" height="54.948"/>
								<circle style="fill:#222850;" cx="443.679" cy="441.078" r="2.385"/>
								<circle style="fill:#222850;" cx="493.09" cy="441.078" r="2.385"/>
								<path style="fill:#222850;" d="M465.369,445.346c0,1.822,1.477,3.3,3.3,3.3c1.822,0,3.3-1.477,3.3-3.3s-1.477-3.3-3.3-3.3
									C466.847,442.047,465.369,443.524,465.369,445.346z"/>
								<polygon style="fill:#222850;" points="495.03,434.936 468.385,429.28 464.093,430.191 464.093,430.191 441.739,434.936 
									441.739,436.594 465.323,436.594 466.044,440.346 468.385,440.346 470.725,440.346 471.446,436.594 495.03,436.594 								
									"/>
							</g>
						</g>
						<path style="fill:#222850;" d="M440.308,379.102h58.573c2.617,0,4.738-2.121,4.738-4.738v-8.268
							c0-2.617-2.121-4.738-4.738-4.738h-58.573c-2.617,0-4.738,2.121-4.738,4.738v8.268
							C435.57,376.981,437.691,379.102,440.308,379.102z"/>
						<path style="fill:#222850;" d="M497.373,341.834L497.373,341.834c-8.176,0-14.804-6.628-14.804-14.804v-43.247
							c0-8.176,6.628-14.804,14.804-14.804l0,0c8.176,0,14.804,6.628,14.804,14.804v43.247
							C512.177,335.206,505.549,341.834,497.373,341.834z"/>
						<path style="fill:#222850;" d="M465.842,265.199c-4.325-5.724-4.42-18.03-0.893-23.277c2.979-4.431,7.005-8.294,10.878-13.451
							c5.092-6.779,12.72-10.017,23.595-2.957c10.875,7.059,8.363,15.454,7.791,23.658c-0.572,8.204,11.352,17.362,4.579,26.902
							C506.715,283.225,482.371,287.076,465.842,265.199z"/>
						<path style="fill:#F6B68E;" d="M445.144,442.148c-3.598,4.183-14.774,8.435-24.35,10.259
							c-9.586,1.824-12.784-0.946-12.784-0.946c-0.907-2.77,0.39-6.192,5.929-8.279c5.539-2.087,16.119-11.136,16.119-11.136
							l-0.185-2.321l-0.575-7.265l11.322-0.673l1.326,6.836l0.478,2.448L445.144,442.148z"/>
						<path style="fill:#C4764B;" d="M441.945,428.622c-4.291,2.35-9.166,1.794-12.072,1.102l-0.575-7.265l11.322-0.673
							L441.945,428.622z"/>
						<path style="fill:#444C72;" d="M442.425,431.068l2.716,11.082c-3.596,4.18-14.769,8.431-24.351,10.254
							c-9.582,1.823-12.784-0.944-12.784-0.944c-0.902-2.766,0.393-6.193,5.936-8.28c5.535-2.08,16.115-11.137,16.115-11.137
							s2.127,3.714,6.416,2.225C440.754,432.785,442.425,431.068,442.425,431.068z"/>
						<path style="fill:#F6B68E;" d="M393.607,407.764l-2.594,4.427l-2.184,3.735l-5.285,10.112
							c-5.461,0.761-16.656-3.433-25.052-8.396c-8.396-4.964-8.971-9.157-8.971-9.157c1.151-2.672,4.388-4.388,9.927-2.292
							c5.529,2.097,19.454,2.292,19.454,2.292l4.086-5.451l1.677-2.243L393.607,407.764z"/>
						<path style="fill:#C4764B;" d="M393.607,407.764l-2.594,4.427c-5.831-2.838-7.528-6.904-8.026-9.157l1.677-2.243
							L393.607,407.764z"/>
						<path style="fill:#444C72;" d="M437.606,374.608l4.447,48.777c-7.372,5.49-14.237,4.134-14.237,4.134
							s-11.448-64.321-10.434-69.919c1.014-5.588,31.8-19.893,31.8-19.893l18.811,4.7l2.418,18.401l0.644,4.915L437.606,374.608z"/>
						<polygon style="fill:#222850;" points="471.054,365.725 437.606,374.608 424.646,371.254 430.097,364.223 457.704,358.372 
							470.41,360.81 						"/>
						<path style="fill:#444C72;" d="M491.664,343.906c0,0-0.255,14.595-3.308,18.727s-41.465,4.132-58.255,1.588l-34.343,44.264
							c0,0-6.614-1.272-12.211-9.158c0,0,36.118-55.711,39.809-56.983c3.691-1.272,37.848-1.165,37.848-1.165
							S478.436,339.109,491.664,343.906z"/>
						<path style="fill:#FDD449;" d="M464.95,274.928l-2.418,24.164l-0.819,8.133c0,0-7.314,4.963-13.525,7.811
							c-3.813,1.755-7.216,2.711-8.231,1.219c-2.672-3.91-12.141-38.148-12.141-38.148l6.797-3.179l12.424,25.569L464.95,274.928z"
							/>
						<path style="fill:#E59A38;" d="M462.531,299.092l-0.819,8.133c0,0-7.314,4.963-13.525,7.811l12.589-23.501L462.531,299.092z"
							/>
						<path style="fill:#F6B68E;" d="M434.612,274.928l-6.797,3.179c0,0-0.991-1.669-2.23-3.622
							c-1.245-1.946-2.116-4.694-2.204-6.198c-0.088-1.511,0.041-4.975,0.796-6.486c0.756-1.504,1.463-1.77,2.13-1.946
							c0.667-0.184,3.24,5.234,3.24,5.234l2.219,2.266c0,0-0.177-0.715-0.443-2.042c-0.265-1.334,0-2.266,0.49-2.532
							c0.49-0.266,1.021,2.396,1.599,3.417C433.992,267.218,434.612,274.928,434.612,274.928z"/>
						<path style="fill:#FDD449;" d="M499.421,280.905l-2.799,26.583l-3.842,36.383c0,0-24.272,1.17-43.599-6.163l3.93-15.661
							l11.838-47.12l8.396-2.028l18.06-0.517L499.421,280.905z"/>
						<path style="fill:#E59A38;" d="M496.623,307.488l-3.842,36.383c0,0-24.272,1.17-43.599-6.163l3.93-15.661l33.945-5.051
							l-0.995-21.034L496.623,307.488z"/>
						<path style="fill:#F6B68E;" d="M492.299,254.42c-1.307,0.888-3.307,0.922-3.307,0.922l-0.131,12.974l2.545,4.066l-4.193,4.456
							l-15.008,16.149l1.141-20.088l2.799-1.911l1.19-6.251l0.722-3.803c0,0-3.306-0.887-7.128-5.588
							c-0.215-0.273-0.4-0.576-0.546-0.917c-2.438-5.646,4.242-20.585,4.242-20.585c4.066,4.963,11.439,5.471,13.35,8.143
							c1.911,2.672,0.253,6.865,0.253,6.865l1.658,0.644c0,0,3.179-2.799,4.827-1.278
							C496.369,249.749,493.596,253.533,492.299,254.42z"/>
						<path style="fill:#444C72;" d="M388.829,415.926l-5.285,10.112c-5.461,0.761-16.656-3.433-25.052-8.396
							c-8.396-4.964-8.971-9.157-8.971-9.157c1.151-2.672,4.388-4.388,9.927-2.292c5.529,2.097,19.454,2.292,19.454,2.292
							s-0.858,4.193,3.345,5.91C386.439,416.111,388.829,415.926,388.829,415.926z"/>
						<path style="fill:#FDD449;" d="M499.422,280.908c0,0,3.943,28.682,4.197,46.076c0,0-22.942,13.187-44.518,14.85l-2.582-6.961
							l35.145-17.882l-5.597-21.032C486.066,295.959,488.61,286.377,499.422,280.908z"/>
						<path style="fill:#F6B68E;" d="M456.519,334.874c0,0-3.777,0.219-7.338,1.618c-3.561,1.399-10.781,5.539-10.142,6.331
							c0.64,0.792,4.887,3.081,11.349,2.064c6.462-1.018,8.713-3.053,8.713-3.053L456.519,334.874z"/>
					</g>
					<g>
						<rect x="320.459" y="321.656" style="fill:#CED8D6;" width="203.257" height="8.553"/>
						<rect x="445.141" y="321.656" style="fill:#FFFFFF;" width="78.575" height="8.553"/>
						<polygon style="fill:#FC694C;" points="373.399,321.656 359.85,274.928 416.136,274.928 429.873,321.656 						"/>
						<polygon style="fill:#444C72;" points="429.876,321.657 424.786,321.657 411.046,274.928 416.136,274.928 						"/>
						<polygon style="fill:#444C72;" points="429.876,321.657 464.95,321.657 464.95,316.991 428.502,316.991 						"/>
						<path style="fill:#F4F4F4;" d="M396.021,293.864c0.882,3.538-1.271,6.406-4.809,6.406c-3.538,0-7.121-2.868-8.003-6.406
							s1.271-6.406,4.809-6.406S395.139,290.327,396.021,293.864z"/>
						<polygon style="fill:#CED8D6;" points="453.535,330.209 448.699,330.244 512.884,454.713 518.104,454.713 						"/>
						<polygon style="fill:#CED8D6;" points="513.319,330.209 518.154,330.244 453.969,454.713 448.749,454.713 						"/>
					</g>
				</g>
				<g>
					<path style="fill:#19888E;" d="M458.303,217.832c2.305-3.002,3.69-6.747,3.69-10.824c0-9.835-7.973-17.807-17.807-17.807
						c-9.835,0-17.807,7.973-17.807,17.807c0,9.835,7.973,17.807,17.807,17.807c2.722,0,5.291-0.629,7.598-1.721l8.937,3.883
						L458.303,217.832z"/>
					<path style="fill:#FFFFFF;" d="M437.317,207.453c0,0.843-0.683,1.526-1.526,1.526c-0.843,0-1.526-0.683-1.526-1.526
						c0-0.843,0.683-1.526,1.526-1.526C436.634,205.927,437.317,206.61,437.317,207.453z"/>
					<path style="fill:#FFFFFF;" d="M445.712,207.453c0,0.843-0.683,1.526-1.526,1.526c-0.843,0-1.526-0.683-1.526-1.526
						c0-0.843,0.683-1.526,1.526-1.526C445.029,205.927,445.712,206.61,445.712,207.453z"/>
					<path style="fill:#FFFFFF;" d="M454.107,207.453c0,0.843-0.683,1.526-1.526,1.526c-0.843,0-1.526-0.683-1.526-1.526
						c0-0.843,0.683-1.526,1.526-1.526C453.424,205.927,454.107,206.61,454.107,207.453z"/>
				</g>
			</g>
		</g>
	</g>
</g>
</svg>
